<?xml version="1.0" encoding="UTF-8" standalone="no"?>
<!DOCTYPE svg PUBLIC "-//W3C//DTD SVG 1.1//EN" "http://www.w3.org/Graphics/SVG/1.1/DTD/svg11.dtd">
<svg width="100%" height="100%" viewBox="0 0 1024 1024" version="1.1" xmlns="http://www.w3.org/2000/svg" xmlns:xlink="http://www.w3.org/1999/xlink" xml:space="preserve" xmlns:serif="http://www.serif.com/" style="fill-rule:evenodd;clip-rule:evenodd;stroke-linecap:round;stroke-linejoin:round;stroke-miterlimit:1.5;">
    <g transform="matrix(2.5942,0,0,2.5942,-917.705,-212.601)">
        <g transform="matrix(1,0,0,1,39.1742,-1.84065)">
            <path d="M335.493,396.264C335.493,396.264 358.881,393.748 379.562,404.163C400.242,414.578 405.767,417.593 433.674,433.722C461.581,449.85 492.37,467.51 503.964,467.34C515.558,467.17 537.935,459.398 563.649,452.496C589.362,445.595 603.833,443.07 608.705,440.882C613.576,438.693 627.876,428.917 647.202,413.599C666.528,398.281 671.796,393.343 683.216,383.916C694.636,374.49 703.707,365.229 704.042,363.546C704.377,361.863 700.506,346.208 683.673,346.879C666.84,347.549 659.542,349.361 659.542,349.361C659.542,349.361 648.156,348.324 641.04,349.098C633.924,349.872 626.031,352.841 626.031,352.841C626.031,352.841 621.109,349.604 612.31,349.731C603.512,349.858 598.336,351.793 598.336,351.793C598.336,351.793 570.273,349.592 554.352,341.569C538.431,333.546 523.162,317.452 500.391,310.462C477.621,303.472 455.119,301.402 441.146,301.66C427.173,301.918 407.38,304.499 407.38,304.499C407.38,304.499 388.92,302.028 372.1,298.792C355.279,295.555 343.763,292.709 343.763,292.709C343.763,292.709 319.958,307.813 319.822,342.324C319.685,376.836 335.493,396.264 335.493,396.264Z" style="fill:rgb(233,183,196);stroke:rgb(141,66,123);stroke-width:8.67px;"/>
            <path d="M561.964,383.376C559.045,381.852 546.868,376.432 540.523,380.025C534.177,383.618 532.915,400.546 535.446,402.951C537.977,405.356 545.314,409.025 551.773,409.91C558.232,410.796 565.811,410.113 565.811,410.113" style="fill:none;stroke:rgb(141,66,123);stroke-width:8.67px;"/>
            <path d="M407.38,304.499C407.38,304.499 395.247,310.378 388.519,319.371C381.791,328.364 375.31,340.281 375.31,340.281" style="fill:none;stroke:rgb(141,66,123);stroke-width:8.67px;"/>
            <path d="M462.096,328.645C467.673,330.29 482.253,344.742 487.066,347.274C491.879,349.806 529.039,357.669 540.695,361.086C552.35,364.503 561.977,369.054 567.926,375.513C573.876,381.972 576.795,397.443 570.319,405.29C563.984,412.966 559.659,416.178 542.402,414.273C525.145,412.369 495.783,407.128 484.469,401.272C473.155,395.417 458.953,391.489 440.547,393.513" style="fill:none;stroke:rgb(141,66,123);stroke-width:8.67px;"/>
            <path d="M598.336,351.793C592.059,354.473 580.026,366.131 573.988,368.538C567.95,370.944 563.756,371.727 563.756,371.727" style="fill:none;stroke:rgb(141,66,123);stroke-width:8.67px;"/>
            <path d="M626.031,352.841C617.14,355.578 598.748,377.73 588.084,380.025C577.42,382.32 572.303,383.346 572.303,383.346" style="fill:none;stroke:rgb(141,66,123);stroke-width:8.67px;"/>
            <path d="M659.542,349.361C653.721,350.58 638.099,370.859 633.911,372.63C629.724,374.402 622.62,377.067 615.639,382.258C608.658,387.449 606.165,392.949 596.604,395.941C587.044,398.933 582.757,399.264 573.48,398.399" style="fill:none;stroke:rgb(141,66,123);stroke-width:8.67px;"/>
            <path d="M704.062,363.293C704.062,363.293 698.443,360.134 693.748,360.766C689.053,361.398 683.599,365.711 679.663,371.727C675.727,377.743 677.204,388.931 677.204,388.931" style="fill:none;stroke:rgb(141,66,123);stroke-width:8.67px;"/>
        </g>
        <g transform="matrix(1,0,0,1,-152.976,-2.21882)">
            <circle cx="829.972" cy="224.957" r="59.864" style="fill:rgb(141,65,122);stroke:rgb(233,183,196);stroke-width:10.67px;"/>
            <g transform="matrix(0.258819,0.965926,-0.965926,0.258819,832.451,-634.958)">
                <path d="M829.972,224.957L787.652,182.636" style="fill:none;stroke:rgb(233,183,196);stroke-width:10.67px;"/>
            </g>
            <g transform="matrix(0.589115,0,0,0.589115,341.023,92.4314)">
                <circle cx="829.972" cy="224.957" r="59.864" style="fill:rgb(141,65,122);stroke:rgb(233,183,196);stroke-width:18.11px;"/>
            </g>
            <g transform="matrix(0.224121,0,0,0.224121,643.958,174.539)">
                <circle cx="829.972" cy="224.957" r="59.864" style="fill:rgb(141,65,122);stroke:rgb(233,183,196);stroke-width:47.59px;"/>
            </g>
        </g>
        <g transform="matrix(1,0,0,1,23.1149,7.62535)">
            <g transform="matrix(0.893109,-0.449841,0.449841,0.893109,-18.1001,299.098)">
                <path d="M542.647,182.761C550.427,186.539 554.658,191.658 560.439,196.549C566.22,201.439 571.336,205.662 573.337,205.662C575.338,205.662 593.363,200.314 606.931,196.525C620.5,192.737 627.624,192.068 640.752,193.179C653.881,194.29 660.996,199.155 663.886,202.489C666.776,205.822 672.571,212.339 668.776,214.499C665.689,216.256 664.608,212.442 661.944,209.802C659.927,207.803 657.972,205.832 656.724,205.351C653.827,204.237 649.178,198.838 647.81,201.117C646.473,203.344 650.562,206.344 653.984,209.691C656.271,211.927 657.925,214.491 658.702,216.449C660.498,220.98 659.581,221.991 658.24,222.664C657.184,223.194 653.543,221.975 651.886,218.667C650.703,216.305 649,213.697 646.211,211.746C639.516,207.062 633.279,203.505 632.162,206.615C631.045,209.724 642.623,216.62 637.937,221.51C633.251,226.4 629.024,218.598 624.337,214.363C619.65,210.128 619.866,206.327 618.083,205.881C616.3,205.436 604.044,213.443 597.136,216.11C590.228,218.777 578.641,227.674 569.95,226.56C561.259,225.446 530.732,207.397 527.612,201.38" style="fill:none;stroke:rgb(141,66,123);stroke-width:13.33px;"/>
                <path d="M542.647,182.761C550.427,186.539 554.658,191.658 560.439,196.549C566.22,201.439 571.336,205.662 573.337,205.662C575.338,205.662 593.363,200.314 606.931,196.525C620.5,192.737 627.624,192.068 640.752,193.179C653.881,194.29 660.996,199.155 663.886,202.489C666.776,205.822 672.571,212.339 668.776,214.499C665.689,216.256 664.608,212.442 661.944,209.802C659.927,207.803 657.972,205.832 656.724,205.351C653.827,204.237 649.178,198.838 647.81,201.117C646.473,203.344 650.562,206.344 653.984,209.691C656.271,211.927 657.925,214.491 658.702,216.449C660.498,220.98 659.581,221.991 658.24,222.664C657.184,223.194 653.543,221.975 651.886,218.667C650.703,216.305 649,213.697 646.211,211.746C639.516,207.062 633.279,203.505 632.162,206.615C631.045,209.724 642.623,216.62 637.937,221.51C633.251,226.4 629.024,218.598 624.337,214.363C619.65,210.128 619.866,206.327 618.083,205.881C616.3,205.436 604.044,213.443 597.136,216.11C590.228,218.777 578.641,227.674 569.95,226.56C561.259,225.446 530.732,207.397 527.612,201.38" style="fill:rgb(233,183,196);"/>
            </g>
            <g transform="matrix(1,0,0,1,10.9219,38.0911)">
                <path d="M531.479,163.034C541.353,172.213 548.33,187.86 537.595,200.711C526.86,213.562 518.61,223.065 512,229.182C505.39,235.3 501.387,237.431 503.222,238.961C505.058,240.49 517.928,246.631 507.499,257.644C497.07,268.657 486.031,275.038 487.866,279.5C489.702,283.962 499.51,283.96 508.076,288.242C516.642,292.524 527.947,307.779 521.505,310.837C515.063,313.895 515.383,304.996 512,301.315C508.617,297.634 504.323,293.345 502.482,294.874C500.642,296.403 510.442,301.3 504.921,304.664C499.4,308.029 497.56,300.676 492.345,298.521C487.131,296.365 461.67,287.469 461.67,281.948C461.67,276.427 480.661,265.389 481.872,259.557C483.084,253.725 465.892,252.781 456.077,255.228C446.262,257.674 439.471,261.319 431.507,259.177C425.887,257.665 420.16,249.062 420.16,249.062C420.16,249.062 386.491,285.186 351.77,248.113C322.643,217.012 332.342,182.99 340.384,168.063C349.661,150.843 370.826,130.537 397.141,140.01C423.457,149.484 427.138,175.852 414.869,188.087C402.601,200.321 391.492,196.814 391.479,189.526C391.466,181.858 409.854,182.788 406.477,170.824C403.1,158.861 401.504,152.945 386.844,151.5C380.443,150.869 344.707,163.975 347.574,203.872C349.94,236.801 366.878,246.42 383.709,249.178C400.33,251.901 416.17,230.159 421.369,216.05C426.569,201.941 439.452,177.704 460.881,166.355C482.311,155.007 489.331,153.112 502.511,152.545C516.892,151.926 522.906,155.064 531.479,163.034Z" style="fill:none;stroke:rgb(141,66,123);stroke-width:16px;"/>
                <path d="M531.479,163.034C541.353,172.213 548.33,187.86 537.595,200.711C526.86,213.562 518.61,223.065 512,229.182C505.39,235.3 501.387,237.431 503.222,238.961C505.058,240.49 517.928,246.631 507.499,257.644C497.07,268.657 486.031,275.038 487.866,279.5C489.702,283.962 499.51,283.96 508.076,288.242C516.642,292.524 527.947,307.779 521.505,310.837C515.063,313.895 515.383,304.996 512,301.315C508.617,297.634 504.323,293.345 502.482,294.874C500.642,296.403 510.442,301.3 504.921,304.664C499.4,308.029 497.56,300.676 492.345,298.521C487.131,296.365 461.67,287.469 461.67,281.948C461.67,276.427 480.661,265.389 481.872,259.557C483.084,253.725 465.892,252.781 456.077,255.228C446.262,257.674 439.471,261.319 431.507,259.177C425.887,257.665 420.16,249.062 420.16,249.062C420.16,249.062 386.491,285.186 351.77,248.113C322.643,217.012 332.342,182.99 340.384,168.063C349.661,150.843 370.826,130.537 397.141,140.01C423.457,149.484 427.138,175.852 414.869,188.087C402.601,200.321 391.492,196.814 391.479,189.526C391.466,181.858 409.854,182.788 406.477,170.824C403.1,158.861 401.504,152.945 386.844,151.5C380.443,150.869 344.707,163.975 347.574,203.872C349.94,236.801 366.878,246.42 383.709,249.178C400.33,251.901 416.17,230.159 421.369,216.05C426.569,201.941 439.452,177.704 460.881,166.355C482.311,155.007 489.331,153.112 502.511,152.545C516.892,151.926 522.906,155.064 531.479,163.034Z" style="fill:rgb(233,183,196);"/>
            </g>
            <g transform="matrix(0.851921,-0.52367,0.52367,0.851921,112.701,122.832)">
                <path d="M278.943,200.396C278.943,205.516 278.143,210.14 276.543,214.268C274.943,218.396 272.559,221.932 269.391,224.876C266.223,227.82 262.271,230.076 257.535,231.644C252.799,233.212 247.263,233.996 240.927,233.996L208.287,233.996L208.287,229.1C209.631,228.972 210.735,228.812 211.599,228.62C212.463,228.428 213.151,228.124 213.663,227.708C214.175,227.292 214.527,226.732 214.719,226.028C214.911,225.324 215.007,224.396 215.007,223.244L215.007,178.508C215.007,177.036 214.303,175.996 212.895,175.388C211.487,174.78 209.951,174.476 208.287,174.476L203.391,174.476C199.999,174.476 197.023,174.908 194.463,175.772C191.903,176.636 189.759,177.82 188.031,179.324C186.303,180.828 185.007,182.572 184.143,184.556C183.279,186.54 182.847,188.652 182.847,190.892C182.847,194.796 183.647,197.66 185.247,199.484C186.847,201.308 188.703,202.22 190.815,202.22C191.711,202.22 192.367,201.964 192.783,201.452C193.199,200.94 193.407,200.396 193.407,199.82C193.407,199.116 193.327,198.508 193.167,197.996C193.007,197.484 192.799,196.972 192.543,196.46C192.287,195.82 192.063,195.164 191.871,194.492C191.679,193.82 191.583,193.004 191.583,192.044C191.583,190.7 191.823,189.5 192.303,188.444C192.783,187.388 193.423,186.492 194.223,185.756C195.023,185.02 195.935,184.46 196.959,184.076C197.983,183.692 199.071,183.5 200.223,183.5C201.951,183.5 203.439,183.836 204.687,184.508C205.935,185.18 206.959,186.044 207.759,187.1C208.559,188.156 209.151,189.34 209.535,190.652C209.919,191.964 210.111,193.292 210.111,194.636C210.111,196.876 209.695,198.956 208.863,200.876C208.031,202.796 206.847,204.46 205.311,205.868C203.775,207.276 201.887,208.38 199.647,209.18C197.407,209.98 194.911,210.38 192.159,210.38C190.047,210.38 187.919,209.98 185.775,209.18C183.631,208.38 181.695,207.164 179.967,205.532C178.239,203.9 176.847,201.868 175.791,199.436C174.735,197.004 174.207,194.156 174.207,190.892C174.207,186.86 174.991,183.34 176.559,180.332C178.127,177.324 180.255,174.812 182.943,172.796C185.631,170.78 188.735,169.276 192.255,168.284C195.775,167.292 199.487,166.796 203.391,166.796L241.311,166.796C247.647,166.796 253.167,167.58 257.871,169.148C262.575,170.716 266.495,172.972 269.631,175.916C272.767,178.86 275.103,182.396 276.639,186.524C278.175,190.652 278.943,195.276 278.943,200.396ZM256.863,200.396C256.863,191.564 255.631,185.036 253.167,180.812C250.703,176.588 246.751,174.476 241.311,174.476L238.623,174.476C237.727,174.476 237.023,174.732 236.511,175.244C235.999,175.756 235.743,176.46 235.743,177.356L235.743,223.436C235.743,224.332 235.999,225.036 236.511,225.548C237.023,226.06 237.727,226.316 238.623,226.316L240.927,226.316C246.367,226.316 250.383,224.204 252.975,219.98C255.567,215.756 256.863,209.228 256.863,200.396ZM336.639,233.996C336.639,233.996 330.671,234.204 328.911,234.62C327.151,235.036 325.055,235.244 322.623,235.244C319.807,235.244 317.391,234.844 315.375,234.044C313.359,233.244 312.031,231.66 311.391,229.292C309.471,230.764 307.215,232.124 304.623,233.372C302.031,234.62 299.231,235.244 296.223,235.244C292.255,235.244 289.103,234.172 286.767,232.028C284.431,229.884 283.263,227.18 283.263,223.916C283.263,220.972 284.127,218.476 285.855,216.428C287.583,214.38 289.807,212.652 292.527,211.244C295.247,209.836 298.255,208.7 301.551,207.836C304.847,206.972 308.031,206.22 311.103,205.58L311.103,201.74C311.103,198.988 310.863,197.1 310.383,196.076C309.903,195.052 308.767,194.54 306.975,194.54C305.567,194.54 304.463,195.004 303.663,195.932C302.863,196.86 302.047,198.444 301.215,200.684C300.447,202.86 299.295,204.46 297.759,205.484C296.223,206.508 294.431,207.02 292.383,207.02C290.591,207.02 289.087,206.46 287.871,205.34C286.655,204.22 286.047,202.508 286.047,200.204C286.047,198.22 286.623,196.46 287.775,194.924C288.927,193.388 290.543,192.092 292.623,191.036C294.703,189.98 297.135,189.18 299.919,188.636C302.703,188.092 305.727,187.82 308.991,187.82C311.615,187.82 314.143,188.076 316.575,188.588C319.007,189.1 321.135,189.948 322.959,191.132C324.783,192.316 326.239,193.852 327.327,195.74C328.415,197.628 328.959,199.948 328.959,202.7L328.959,224.684C328.959,225.772 329.183,226.524 329.631,226.94C330.079,227.356 332.683,230.139 335.304,230.062C338.884,229.956 339.919,228.697 340.527,228.236C341.135,227.775 341.439,226.93 341.439,225.701L341.439,204.781C341.439,203.061 340.735,202.201 339.327,202.201L336.639,202.201L336.639,197.685L352.671,189.667L359.295,189.667L359.295,194.183C361.215,192.954 363.455,191.894 366.015,191.003C368.575,190.112 371.071,189.667 373.503,189.667C375.423,189.667 377.343,189.866 379.263,190.266C381.183,190.665 382.895,191.418 384.399,192.524C385.903,193.63 387.119,195.181 388.047,197.178C388.975,199.175 389.439,201.77 389.439,204.965L389.439,241.092C389.439,243.98 389.887,245.961 390.783,247.036C391.679,248.112 392.767,248.649 394.047,248.649C395.519,248.649 396.543,248.265 397.119,247.497C397.695,246.729 398.175,245.639 398.559,244.225C399.711,240.109 402.271,238.051 406.239,238.051C408.223,238.051 409.903,238.619 411.279,239.756C412.655,240.892 413.343,242.413 413.343,244.318C413.343,247.758 411.519,250.416 407.871,252.289C404.223,254.163 399.103,255.1 392.511,255.1C389.503,255.1 386.719,254.686 384.159,253.856C381.599,253.027 379.391,251.813 377.535,250.216C375.679,248.618 374.223,246.637 373.167,244.272C372.111,241.906 371.583,239.187 371.583,236.115L371.583,204.505C371.583,202.538 371.039,201.141 369.951,200.311C368.863,199.482 367.551,199.067 366.015,199.067C364.735,199.067 363.567,199.267 362.511,199.666C361.455,200.065 360.383,200.603 359.295,201.279L359.295,225.701C359.295,226.93 359.599,227.775 360.207,228.236C360.815,228.697 362.111,229.05 364.095,229.296L364.095,233.996L336.639,233.996ZM305.919,224.492C307.007,224.492 307.967,224.332 308.799,224.012C309.631,223.692 310.399,223.276 311.103,222.764L311.103,212.204C308.159,212.908 305.807,213.836 304.047,214.988C302.287,216.14 301.407,217.772 301.407,219.884C301.407,221.484 301.855,222.652 302.751,223.388C303.647,224.124 304.703,224.492 305.919,224.492Z" style="fill:none;stroke:rgb(233,183,196);stroke-width:13.33px;stroke-linecap:butt;stroke-miterlimit:2;"/>
                <path d="M278.943,200.396C278.943,205.516 278.143,210.14 276.543,214.268C274.943,218.396 272.559,221.932 269.391,224.876C266.223,227.82 262.271,230.076 257.535,231.644C252.799,233.212 247.263,233.996 240.927,233.996L208.287,233.996L208.287,229.1C209.631,228.972 210.735,228.812 211.599,228.62C212.463,228.428 213.151,228.124 213.663,227.708C214.175,227.292 214.527,226.732 214.719,226.028C214.911,225.324 215.007,224.396 215.007,223.244L215.007,178.508C215.007,177.036 214.303,175.996 212.895,175.388C211.487,174.78 209.951,174.476 208.287,174.476L203.391,174.476C199.999,174.476 197.023,174.908 194.463,175.772C191.903,176.636 189.759,177.82 188.031,179.324C186.303,180.828 185.007,182.572 184.143,184.556C183.279,186.54 182.847,188.652 182.847,190.892C182.847,194.796 183.647,197.66 185.247,199.484C186.847,201.308 188.703,202.22 190.815,202.22C191.711,202.22 192.367,201.964 192.783,201.452C193.199,200.94 193.407,200.396 193.407,199.82C193.407,199.116 193.327,198.508 193.167,197.996C193.007,197.484 192.799,196.972 192.543,196.46C192.287,195.82 192.063,195.164 191.871,194.492C191.679,193.82 191.583,193.004 191.583,192.044C191.583,190.7 191.823,189.5 192.303,188.444C192.783,187.388 193.423,186.492 194.223,185.756C195.023,185.02 195.935,184.46 196.959,184.076C197.983,183.692 199.071,183.5 200.223,183.5C201.951,183.5 203.439,183.836 204.687,184.508C205.935,185.18 206.959,186.044 207.759,187.1C208.559,188.156 209.151,189.34 209.535,190.652C209.919,191.964 210.111,193.292 210.111,194.636C210.111,196.876 209.695,198.956 208.863,200.876C208.031,202.796 206.847,204.46 205.311,205.868C203.775,207.276 201.887,208.38 199.647,209.18C197.407,209.98 194.911,210.38 192.159,210.38C190.047,210.38 187.919,209.98 185.775,209.18C183.631,208.38 181.695,207.164 179.967,205.532C178.239,203.9 176.847,201.868 175.791,199.436C174.735,197.004 174.207,194.156 174.207,190.892C174.207,186.86 174.991,183.34 176.559,180.332C178.127,177.324 180.255,174.812 182.943,172.796C185.631,170.78 188.735,169.276 192.255,168.284C195.775,167.292 199.487,166.796 203.391,166.796L241.311,166.796C247.647,166.796 253.167,167.58 257.871,169.148C262.575,170.716 266.495,172.972 269.631,175.916C272.767,178.86 275.103,182.396 276.639,186.524C278.175,190.652 278.943,195.276 278.943,200.396ZM256.863,200.396C256.863,191.564 255.631,185.036 253.167,180.812C250.703,176.588 246.751,174.476 241.311,174.476L238.623,174.476C237.727,174.476 237.023,174.732 236.511,175.244C235.999,175.756 235.743,176.46 235.743,177.356L235.743,223.436C235.743,224.332 235.999,225.036 236.511,225.548C237.023,226.06 237.727,226.316 238.623,226.316L240.927,226.316C246.367,226.316 250.383,224.204 252.975,219.98C255.567,215.756 256.863,209.228 256.863,200.396ZM336.639,233.996C336.639,233.996 330.671,234.204 328.911,234.62C327.151,235.036 325.055,235.244 322.623,235.244C319.807,235.244 317.391,234.844 315.375,234.044C313.359,233.244 312.031,231.66 311.391,229.292C309.471,230.764 307.215,232.124 304.623,233.372C302.031,234.62 299.231,235.244 296.223,235.244C292.255,235.244 289.103,234.172 286.767,232.028C284.431,229.884 283.263,227.18 283.263,223.916C283.263,220.972 284.127,218.476 285.855,216.428C287.583,214.38 289.807,212.652 292.527,211.244C295.247,209.836 298.255,208.7 301.551,207.836C304.847,206.972 308.031,206.22 311.103,205.58L311.103,201.74C311.103,198.988 310.863,197.1 310.383,196.076C309.903,195.052 308.767,194.54 306.975,194.54C305.567,194.54 304.463,195.004 303.663,195.932C302.863,196.86 302.047,198.444 301.215,200.684C300.447,202.86 299.295,204.46 297.759,205.484C296.223,206.508 294.431,207.02 292.383,207.02C290.591,207.02 289.087,206.46 287.871,205.34C286.655,204.22 286.047,202.508 286.047,200.204C286.047,198.22 286.623,196.46 287.775,194.924C288.927,193.388 290.543,192.092 292.623,191.036C294.703,189.98 297.135,189.18 299.919,188.636C302.703,188.092 305.727,187.82 308.991,187.82C311.615,187.82 314.143,188.076 316.575,188.588C319.007,189.1 321.135,189.948 322.959,191.132C324.783,192.316 326.239,193.852 327.327,195.74C328.415,197.628 328.959,199.948 328.959,202.7L328.959,224.684C328.959,225.772 329.183,226.524 329.631,226.94C330.079,227.356 332.683,230.139 335.304,230.062C338.884,229.956 339.919,228.697 340.527,228.236C341.135,227.775 341.439,226.93 341.439,225.701L341.439,204.781C341.439,203.061 340.735,202.201 339.327,202.201L336.639,202.201L336.639,197.685L352.671,189.667L359.295,189.667L359.295,194.183C361.215,192.954 363.455,191.894 366.015,191.003C368.575,190.112 371.071,189.667 373.503,189.667C375.423,189.667 377.343,189.866 379.263,190.266C381.183,190.665 382.895,191.418 384.399,192.524C385.903,193.63 387.119,195.181 388.047,197.178C388.975,199.175 389.439,201.77 389.439,204.965L389.439,241.092C389.439,243.98 389.887,245.961 390.783,247.036C391.679,248.112 392.767,248.649 394.047,248.649C395.519,248.649 396.543,248.265 397.119,247.497C397.695,246.729 398.175,245.639 398.559,244.225C399.711,240.109 402.271,238.051 406.239,238.051C408.223,238.051 409.903,238.619 411.279,239.756C412.655,240.892 413.343,242.413 413.343,244.318C413.343,247.758 411.519,250.416 407.871,252.289C404.223,254.163 399.103,255.1 392.511,255.1C389.503,255.1 386.719,254.686 384.159,253.856C381.599,253.027 379.391,251.813 377.535,250.216C375.679,248.618 374.223,246.637 373.167,244.272C372.111,241.906 371.583,239.187 371.583,236.115L371.583,204.505C371.583,202.538 371.039,201.141 369.951,200.311C368.863,199.482 367.551,199.067 366.015,199.067C364.735,199.067 363.567,199.267 362.511,199.666C361.455,200.065 360.383,200.603 359.295,201.279L359.295,225.701C359.295,226.93 359.599,227.775 360.207,228.236C360.815,228.697 362.111,229.05 364.095,229.296L364.095,233.996L336.639,233.996ZM305.919,224.492C307.007,224.492 307.967,224.332 308.799,224.012C309.631,223.692 310.399,223.276 311.103,222.764L311.103,212.204C308.159,212.908 305.807,213.836 304.047,214.988C302.287,216.14 301.407,217.772 301.407,219.884C301.407,221.484 301.855,222.652 302.751,223.388C303.647,224.124 304.703,224.492 305.919,224.492Z" style="fill:rgb(141,65,122);"/>
            </g>
            <g transform="matrix(1,0,0,1,10.9219,38.0911)">
                <path d="M533.888,280.492C532.029,277.726 525.274,270.119 522.648,268.335C518.97,265.837 499.021,250.093 493.632,242.766C491.722,240.17 491.17,238.454 490.323,231.782C490.23,231.048 489.844,226.163 489.807,225.474C489.784,225.056 489.597,219.52 489.601,218.785C489.611,216.66 489.633,213.015 489.732,207.125C489.744,206.419 489.748,206.182 490.34,198.321C490.541,195.651 490.555,195.653 490.562,195.421C490.565,195.319 490.553,195.32 490.432,193.426C490.416,193.181 490.326,191.772 491.429,190.519C491.768,190.133 492.188,189.804 492.649,189.576C494.164,188.828 495.526,189.296 495.762,189.377C497.311,189.909 497.928,191.16 498.035,191.377C498.489,192.296 498.413,192.328 498.479,193.352C498.487,193.475 498.579,194.883 498.58,194.891C498.58,194.892 499.552,199.456 500.674,204.522C500.868,205.399 500.887,205.394 501.037,206.279C502.558,215.274 502.886,216.705 503.169,218.564C503.836,222.939 503.885,222.93 504.149,224.914C504.551,227.927 504.597,227.919 505.002,230.932C505.245,232.74 505.422,233.699 505.523,234.174C508.895,238.654 524.397,251.488 530.246,255.747C531.208,256.448 533.218,257.549 538.335,263.016C539.842,264.626 545.25,270.552 546.9,273.701C547.982,274.807 549.697,276.299 551.406,278.2C552.781,275.962 555.214,274.604 557.893,274.588C548.3,270.529 539.329,264.228 534.08,258.148C527.694,250.749 516.018,234.923 514.945,233.068C511.785,227.607 514.534,220.056 515.823,203.992C515.842,203.757 516.198,200.514 516.406,196.985C516.436,196.471 516.699,193.981 516.576,190.282C516.539,189.144 516.618,184.038 515.034,177.468C515.022,177.418 513.702,170.643 510.919,166.619C510.497,166.009 510.122,165.612 510.046,165.531L510.049,165.526C510.025,165.501 510.001,165.475 509.978,165.448C509.974,165.443 509.983,165.45 509.985,165.452C509.589,165.102 509.118,164.82 508.797,164.4C507.803,163.099 507.984,161.715 508.015,161.475C508.234,159.799 509.377,158.928 509.575,158.777C510.875,157.786 512.26,157.964 512.5,157.995C514.358,158.234 516.699,160.306 517.01,160.581C521.14,164.235 524.642,170.793 526.238,174.865C526.995,176.799 528.918,181.939 530.038,188.853C530.039,188.857 530.396,191.184 530.584,194.27C530.707,196.298 530.74,197.593 530.622,201.197C530.521,204.274 530.433,205.674 530.075,209.223C529.284,217.068 528.18,223.491 528.147,226.42C531.993,231.873 542.846,246.253 546.323,249.799C551.093,254.663 559.286,259.687 566.515,262.212C577.332,265.992 583.374,278.721 583.535,285.684C583.569,287.156 583.404,287.537 583.199,289.357C582.888,292.127 582.553,297.849 577.801,300.935C575.79,302.242 573.275,302.805 570.867,302.518C569.778,304.252 568.27,305.743 566.171,306.629C563.13,307.912 559.387,307.495 556.64,305.402C554.182,307.021 551.334,307.811 548.218,307.361C542.549,306.542 532.137,301.427 531.625,292.252C531.416,288.497 532.906,285.061 535.656,283.146C534.59,281.937 534.164,281.124 533.888,280.492Z" style="fill:rgb(141,66,123);"/>
            </g>
            <g transform="matrix(1,0,0,1,10.9219,38.0911)">
                <path d="M510.901,166.653C515.314,170.468 524.169,180.272 523.541,197.603C522.912,214.933 519.502,226.713 521.356,229.497C523.211,232.281 533.75,246.546 539.628,253.351C545.505,260.157 556.05,266.351 564.095,269.135C572.14,271.919 576.77,283.029 576.15,286.741C575.529,290.453 575.904,295.252 572.051,295.252C568.198,295.251 570.855,289.199 569.57,285.438C568.285,281.677 567.275,278.007 566.174,278.739C565.073,279.471 566.629,283.597 566.628,288.175C566.628,292.754 565.711,300.635 562.133,299.993C558.556,299.351 561.029,294.031 560.568,288.895C560.108,283.758 559.099,281.922 557.907,281.922C556.714,281.922 559.371,286.052 557.812,291.27C556.253,296.488 552.857,300.337 549.738,300.152C546.62,299.967 538.109,296.17 539.006,290.795C539.645,286.965 543.647,289.874 545.376,291.7C547.105,293.525 550.26,295.365 549.526,289.677C548.792,283.99 541.166,279.207 540.524,277.372C539.882,275.537 530.709,264.897 526.856,262.328C523.004,259.76 500.492,241.708 498.702,237.011C496.912,232.313 498.638,194.039 498.638,194.039" style="fill:rgb(233,183,196);"/>
            </g>
            <g transform="matrix(1.21641,0,0,1,-143.148,37.1232)">
                <path d="M545.667,115.959C551.231,101.56 562.648,91.678 575.817,91.678C594.448,91.678 609.574,111.46 609.574,135.826C609.574,160.193 594.448,179.975 575.817,179.975C563.075,179.975 551.973,170.724 546.227,157.081" style="fill:rgb(233,183,196);stroke:rgb(141,66,123);stroke-width:7.18px;"/>
            </g>
            <g transform="matrix(0.911496,0,0,0.887721,57.016,54.1868)">
                <path d="M509.351,157.727C507.994,158.097 506.275,158.442 504.963,158.442C494.564,158.442 486.121,147.804 486.121,134.701C486.121,121.598 494.564,110.96 504.963,110.96C509.48,110.96 513.627,112.966 516.874,116.31" style="fill:rgb(233,183,196);stroke:rgb(141,66,123);stroke-width:8.89px;"/>
            </g>
            <g transform="matrix(1.09376,0,0,1.13398,-39.687,23.0088)">
                <path d="M542.496,151.101C541.189,146.669 533.53,141.43 533.53,133.301C533.53,124.175 540.479,117.716 548.91,116.767C559.709,115.551 562.903,122.093 564.669,122.089C566.075,122.085 569.332,116.767 574.577,116.767C581.801,116.767 587.666,123.947 587.666,132.791C587.666,140.403 581.305,141.851 580.644,146.368C580.015,150.671 583.701,155.413 583.701,159.894C583.701,168.861 574.218,176.141 562.538,176.141C550.857,176.141 541.374,168.861 541.374,159.894C541.374,155.978 543.57,154.741 542.496,151.101Z" style="fill:rgb(233,183,196);stroke:rgb(141,66,123);stroke-width:5.39px;"/>
            </g>
            <g transform="matrix(1,0,0,1,10.9219,38.0911)">
                <path d="M584.923,161.914C584.552,162.018 584.534,162.005 584.198,161.816C583.746,161.56 583.809,161.487 583.626,160.999C582.808,158.812 578.953,151.669 576.381,148.441C575.452,147.274 573.901,145.076 573.225,143.482C572.445,141.641 571.514,138.614 572.648,135.466C573.139,134.103 574.299,134.062 574.484,134.055C575.324,134.025 575.845,134.516 575.936,134.601C576.528,135.158 576.554,135.853 576.558,135.973C576.582,136.609 576.461,136.59 576.291,137.205C575.704,139.334 576.773,141.605 577.18,142.574C578.159,144.9 579.225,146.163 580.313,148.157C582.235,151.678 584.981,158.037 585.604,160.697C585.696,161.091 585.524,161.399 585.494,161.452C585.305,161.79 585.295,161.809 584.923,161.914Z" style="fill:rgb(141,66,123);"/>
            </g>
            <g transform="matrix(1.10438,0,0,1.07556,-46.325,27.9474)">
                <ellipse cx="553.492" cy="137.271" rx="5.119" ry="5.042" style="fill:rgb(141,65,122);"/>
            </g>
            <g transform="matrix(0.955802,0,0,1.07556,58.9905,27.9474)">
                <ellipse cx="553.492" cy="137.271" rx="5.119" ry="5.042" style="fill:rgb(141,65,122);"/>
            </g>
            <g transform="matrix(1,0,0,1,10.9219,38.0911)">
                <path d="M497.737,132.733C497.288,132.35 497.279,132.319 497.233,131.731C497.177,130.999 497.308,131.012 497.744,130.42C498.607,129.247 502.056,124.456 508.506,127.083C512.576,128.741 513.77,132.442 514.226,134.255C514.26,134.391 514.557,135.776 514.537,138.302C514.528,139.508 514.447,140.69 514.419,141.117C514.407,141.3 514.338,142.352 513.401,143.173C513.112,143.426 512.77,143.63 512.407,143.754C511.212,144.162 510.249,143.684 510.082,143.601C509.92,143.521 508.987,143.058 508.592,141.901C508.328,141.129 508.41,141.111 508.46,140.297C508.672,136.818 508.395,135.963 508.336,135.242C508.142,132.832 507.199,131.615 505.345,130.829C503.26,129.944 501.6,130.903 499.907,132.487C499.435,132.929 499.464,133.039 498.819,133.089C498.221,133.135 498.192,133.122 497.737,132.733Z" style="fill:rgb(141,66,123);"/>
            </g>
            <g transform="matrix(1,0,0,1,10.9219,38.0911)">
                <path d="M574.22,157.14C574.032,156.991 573.82,156.874 573.632,156.725C573.584,156.687 573.514,156.39 573.507,156.36C573.464,156.178 573.081,154.872 574.861,151.925C575.178,151.399 575.191,151.373 575.775,151.185C576.55,150.935 577.169,151.249 577.277,151.304C578.454,151.9 578.364,153.047 578.35,153.222C578.33,153.479 578.263,153.736 578.151,153.968C577.874,154.542 577.742,154.588 577.682,154.609C575.681,155.301 574.799,156.029 574.609,156.498C574.587,156.553 574.578,156.549 574.22,157.14Z" style="fill:rgb(141,66,123);"/>
            </g>
            <g transform="matrix(1,0,0,1,10.9219,38.0911)">
                <path d="M567.86,157.039C567.636,157.011 567.412,156.985 567.188,156.957C567.176,156.955 564.476,155.067 563.039,154.631C562.844,154.572 562.583,154.064 562.554,154.008C562.499,153.9 562.18,153.279 562.409,152.508C562.444,152.39 562.644,151.713 563.386,151.32C564.106,150.939 564.771,151.14 564.886,151.175C565.329,151.308 565.381,151.257 565.651,151.634C565.888,151.967 566.673,153.064 567.893,156.227C567.911,156.273 567.947,156.315 567.945,156.363C567.936,156.59 567.869,156.812 567.86,157.039Z" style="fill:rgb(141,66,123);"/>
            </g>
            <g transform="matrix(1,0,0,1,10.9219,38.0911)">
                <path d="M584.986,167.515C584.983,167.512 584.98,167.509 584.977,167.506C585.189,167.08 585.146,167.026 585.191,166.938C585.352,166.626 585.463,166.28 585.683,166.008C585.784,165.883 586.367,165.163 587.447,165.044C587.611,165.026 588.562,164.921 589.434,165.627C590.278,166.31 590.38,167.23 590.397,167.39C590.53,168.593 589.665,169.986 589.541,170.185C587.286,173.819 582.991,172.602 582.009,172.347C579,171.568 575.756,169.952 572.712,169.906C567.855,169.833 567.425,171.102 563.715,171.808C560.936,172.337 557.789,172.143 554.936,170.88C552.87,169.965 551.995,168.875 551.66,168.006C551.322,167.132 551.579,167.095 552.238,166.427C552.846,165.809 553.672,166.935 553.769,167.069L553.771,167.068C554.681,168.252 558.15,168.778 560.539,168.414C564.597,167.795 565.387,166.337 569.211,165.567C569.927,165.422 572.123,165.07 574.3,165.25C578.595,165.605 583.213,167.836 584.88,167.544C584.918,167.537 584.952,167.529 584.986,167.515Z" style="fill:rgb(141,66,123);"/>
            </g>
        </g>
    </g>
</svg>
